<svg width="13" height="9" viewBox="0 0 13 9" fill="none" xmlns="http://www.w3.org/2000/svg">
<path d="M12.354 0.854028L4.35403 8.85403C4.30759 8.90052 4.25245 8.9374 4.19175 8.96256C4.13105 8.98772 4.06599 9.00067 4.00028 9.00067C3.93457 9.00067 3.86951 8.98772 3.80881 8.96256C3.74811 8.9374 3.69296 8.90052 3.64653 8.85403L0.146528 5.35403C0.0527077 5.26021 0 5.13296 0 5.00028C0 4.8676 0.0527077 4.74035 0.146528 4.64653C0.240348 4.55271 0.367596 4.5 0.500278 4.5C0.63296 4.5 0.760208 4.55271 0.854028 4.64653L4.00028 7.7934L11.6465 0.146528C11.7403 0.0527074 11.8676 -9.88557e-10 12.0003 0C12.133 9.88558e-10 12.2602 0.0527074 12.354 0.146528C12.4478 0.240348 12.5006 0.367596 12.5006 0.500278C12.5006 0.63296 12.4478 0.760208 12.354 0.854028Z" fill="#A1A1A1"/>
</svg>
